<svg xmlns="http://www.w3.org/2000/svg" width="876" height="192" viewBox="0 0 876 192" fill="none">
  <g fill="#8fc8bb" fill-rule="evenodd">
    <path d="M 309 59 L 304 64 L 304 72 L 309 78 L 351 79 L 362 86 L 366 92 L 366 97 L 362 101 L 316 102 L 306 105 L 299 109 L 288 121 L 282 137 L 283 154 L 290 169 L 302 180 L 310 184 L 320 186 L 341 185 L 348 183 L 360 176 L 366 176 L 370 182 L 376 186 L 382 186 L 386 184 L 390 178 L 390 98 L 388 88 L 384 79 L 375 68 L 361 60 L 354 58 Z M 304 149 L 304 139 L 306 134 L 313 126 L 319 123 L 363 122 L 366 124 L 368 128 L 365 140 L 358 151 L 347 160 L 335 165 L 321 165 L 314 162 L 309 158 Z"/>
    <path d="M 658 57 L 647 59 L 632 65 L 622 72 L 613 81 L 608 88 L 601 104 L 599 112 L 599 131 L 602 143 L 609 157 L 617 167 L 625 174 L 645 184 L 655 186 L 672 186 L 685 183 L 698 177 L 715 162 L 725 144 L 727 138 L 727 129 L 721 123 L 713 123 L 709 125 L 705 137 L 699 148 L 688 159 L 672 165 L 656 165 L 642 159 L 640 154 L 645 148 L 716 98 L 718 94 L 718 87 L 715 82 L 706 72 L 699 67 L 680 59 Z M 688 88 L 686 93 L 629 134 L 624 134 L 622 132 L 622 109 L 628 97 L 639 86 L 655 79 L 672 79 L 683 83 Z"/>
    <path d="M 196 57 L 178 61 L 166 67 L 152 79 L 140 99 L 137 110 L 136 126 L 138 138 L 146 156 L 152 164 L 163 174 L 182 184 L 194 186 L 210 186 L 230 180 L 245 170 L 257 155 L 262 145 L 265 132 L 263 127 L 258 123 L 248 124 L 245 127 L 241 139 L 233 152 L 223 160 L 213 164 L 194 165 L 186 163 L 178 158 L 177 154 L 182 148 L 249 101 L 255 94 L 255 88 L 249 78 L 233 65 L 218 59 Z M 224 86 L 225 90 L 221 95 L 169 132 L 162 134 L 159 131 L 158 115 L 160 107 L 166 96 L 179 84 L 192 79 L 203 78 L 216 81 Z"/>
    <path d="M 866 7 L 855 6 L 849 12 L 849 55 L 847 67 L 842 68 L 829 61 L 818 58 L 793 58 L 776 64 L 768 69 L 758 78 L 752 86 L 744 103 L 742 112 L 743 137 L 747 149 L 754 161 L 762 170 L 775 179 L 797 186 L 820 185 L 830 182 L 842 175 L 846 175 L 849 178 L 850 182 L 855 186 L 863 186 L 867 184 L 869 181 L 870 13 Z M 802 78 L 815 79 L 824 82 L 832 87 L 844 101 L 849 119 L 847 135 L 838 151 L 827 160 L 813 165 L 799 165 L 791 163 L 782 158 L 770 146 L 765 137 L 763 129 L 763 115 L 766 105 L 771 96 L 784 84 Z"/>
    <path d="M 419 7 L 415 12 L 416 181 L 422 186 L 428 186 L 433 182 L 435 177 L 434 86 L 435 58 L 437 55 L 442 55 L 486 113 L 493 120 L 496 121 L 502 120 L 508 114 L 549 59 L 553 55 L 557 55 L 560 58 L 560 179 L 567 186 L 573 186 L 577 184 L 580 179 L 579 10 L 574 6 L 565 7 L 552 22 L 505 85 L 501 88 L 494 88 L 486 80 L 436 13 L 428 6 Z"/>
    <path d="M 11 7 L 7 11 L 5 16 L 5 168 L 7 182 L 13 186 L 19 186 L 24 183 L 26 178 L 26 108 L 28 104 L 33 101 L 61 101 L 113 182 L 118 186 L 127 185 L 130 182 L 131 174 L 113 143 L 88 105 L 88 100 L 90 98 L 100 93 L 109 85 L 119 68 L 121 60 L 121 46 L 114 27 L 102 14 L 84 6 L 18 5 Z M 26 33 L 33 26 L 81 26 L 90 31 L 99 42 L 101 49 L 101 57 L 99 64 L 90 75 L 80 80 L 32 80 L 26 73 Z"/>
  </g>
</svg>
