<svg xmlns="http://www.w3.org/2000/svg" viewBox="0 0 192 192">
  <rect width="192" height="192" rx="38" fill="#7DB9B5"/>
  <g fill="white" transform="translate(54.7 38) scale(0.607)">
    <path d="M 11 7 L 7 11 L 5 16 L 5 168 L 7 182 L 13 186 L 19 186 L 24 183 L 26 178 L 26 108 L 28 104 L 33 101 L 61 101 L 113 182 L 118 186 L 127 185 L 130 182 L 131 174 L 113 143 L 88 105 L 88 100 L 90 98 L 100 93 L 109 85 L 119 68 L 121 60 L 121 46 L 114 27 L 102 14 L 84 6 L 18 5 Z M 26 33 L 33 26 L 81 26 L 90 31 L 99 42 L 101 49 L 101 57 L 99 64 L 90 75 L 80 80 L 32 80 L 26 73 Z"/>
  </g>
</svg>
